<svg xmlns="http://www.w3.org/2000/svg" viewBox="0 0 45 45">
<path fill="#333841" d="M28.4 10.2v3.4c0 1-.5 1.5-1.6 1.5H18c-.9 0-1.4-.5-1.4-1.5v-3.4h11.8zm-5.6 8.7c2.8 0 5 .9 6.6 2.7 1.9 1.8 2.8 4.2 2.8 7.1s-.9 5.3-2.8 7.1c-1.6 1.8-3.8 2.7-6.6 2.7s-5-.9-6.6-2.7c-1.9-1.8-2.8-4.2-2.8-7.1s.9-5.3 2.8-7.1c1.5-1.7 3.7-2.7 6.6-2.7zm-11-16.1c-3.2.3-5.9 1.6-8.2 4C1.3 9.2.2 12.5.2 16.8c0 1.7 1.1 2.5 3.4 2.5 1.9 0 3-.2 3.4-.6.7-.7 1-1.9 1-3.6v-2.5c0-1.5 1.3-2.4 4-2.5v4.2c-1.2.1-1.8 1.1-1.8 2.9 0 1.4-.4 2.9-1.2 4.4-.4.7-1.6 2.2-3.6 4.6C3 29 1.8 32.7 1.8 37.3c0 2 .3 3.2.8 3.8.7.7 1.5 1 2.4 1h35c.9 0 1.7-.3 2.4-1 .5-.6.8-1.8.8-3.8 0-4.6-1.2-8.3-3.6-11.1-2-2.4-3.2-3.9-3.6-4.6-.8-1.5-1.2-3-1.2-4.4 0-1.8-.6-2.8-1.8-2.9v-4.2c2.7.1 4 1 4 2.5v2.5c0 1.7.3 2.9 1 3.6.4.4 1.5.6 3.4.6 2.3 0 3.4-.8 3.4-2.5 0-4.3-1.1-7.7-3.4-10-2.3-2.4-5-3.7-8.2-4H11.8z"/>
</svg>
