<svg xmlns="http://www.w3.org/2000/svg" viewBox="-947 528 25 25">
<style>
.ring{fill:none;stroke:#FFFFFF;stroke-linejoin:round;stroke-miterlimit:10;} .v{fill:#FFFFFF;}
</style>
<path d="M-946.4 540.5c0-6.6 5.3-11.9 11.9-11.9 3.2 0 6.2 1.3 8.4 3.5s3.5 5.3 3.5 8.4c0 6.6-5.3 11.9-11.9 11.9-6.6 0-11.9-5.3-11.9-11.9z" class="ring"/>
<path d="M-943.6 540.5c0-5 4-9 9-9 2.4 0 4.7.9 6.4 2.6 1.7 1.7 2.6 4 2.6 6.4 0 5-4 9-9 9-4.9 0-9-4-9-9z" class="ring"/>
<path d="M-942.1 536l6.6 13.1h1.8l6.6-13.1h-1.3l-6.2 12.3-6.2-12.3h-1.3z" class="v"/>
</svg>
