<svg xmlns="http://www.w3.org/2000/svg" width="150" height="150" viewBox="0 0 150 150">
<style>
#dot{fill:#43C3B1;} .topBottom{fill:none;stroke:#43C3B1;stroke-width:6;stroke-miterlimit:10;}
</style>
<path id="dot" d="M70.2 34.9h9.7c.3 0 .5.2.5.5-.2 2.9-2.5 4.8-5.3 4.8s-5.1-2-5.3-4.8c-.1-.3.1-.5.4-.5z"/>
<path id="top" d="M122.9 93.4H27.1c-.3 0-.6-.3-.6-.6.3-26.7 21.9-47.9 48.5-47.9s48.2 21.2 48.5 47.9c0 .3-.3.6-.6.6z" class="topBottom"/>
<path id="bottom" d="M123.2 115.1H26.8c-.2 0-.3-.1-.3-.3v-9.1c0-.2.1-.3.3-.3h96.5c.2 0 .3.1.3.3v9.1c-.1.2-.2.3-.4.3z" class="topBottom"/>
</svg>
