<?xml-stylesheet type="text/css" href="/static/svg/logo/verge-logo.css"?>
<svg xmlns="http://www.w3.org/2000/svg" xmlns:xlink="http://www.w3.org/1999/xlink" viewBox="0 0 300 110">
<path d="M91.7 22.8l.9-.9L73 2.3H20.8L4.5 18.7l.9.9L21.3 3.7h51.2" class="darkGrey"/>
<path d="M1 20.5c0-1.3 1.1-2.4 2.4-2.4.6 0 1.3.3 1.7.7s.7 1.1.7 1.7c0 1.3-1.1 2.4-2.4 2.4-1.3 0-2.4-1.1-2.4-2.4z" class="darkGrey"/>
<path d="M1 20.5c0-1.3 1.1-2.4 2.4-2.4.6 0 1.3.3 1.7.7s.7 1.1.7 1.7c0 1.3-1.1 2.4-2.4 2.4-1.3 0-2.4-1.1-2.4-2.4z" class="redRing"/>
<path d="M70.6 9v-.1H24V9l-9.8 9.7.9.9 9.4-9.4h45.6l7.9 7.9.9-.9" class="darkGrey"/>
<path d="M10.7 20.5c0-1.3 1.1-2.4 2.4-2.4.6 0 1.3.3 1.7.7s.7 1.1.7 1.7c0 1.3-1.1 2.4-2.4 2.4-1.3 0-2.4-1-2.4-2.4z" class="darkGrey"/>
<path d="M10.7 20.5c0-1.3 1.1-2.4 2.4-2.4.6 0 1.3.3 1.7.7s.7 1.1.7 1.7c0 1.3-1.1 2.4-2.4 2.4-1.3 0-2.4-1-2.4-2.4z" class="redRing"/>
<path d="M68.7 18.2l.9-.9-3.1-3h-37l-3.8 3.8.9.9 3.5-3.4H66" class="darkGrey"/>
<path d="M22.2 19.9c0-1.3 1.1-2.4 2.4-2.4.6 0 1.3.3 1.7.7.5.5.7 1.1.7 1.7 0 1.3-1.1 2.4-2.4 2.4-1.3.1-2.4-1-2.4-2.4z" class="darkGrey"/>
<path d="M22.2 19.9c0-1.3 1.1-2.4 2.4-2.4.6 0 1.3.3 1.7.7.5.5.7 1.1.7 1.7 0 1.3-1.1 2.4-2.4 2.4-1.3.1-2.4-1-2.4-2.4z" class="greenRing"/>
<path d="M169.5 91.3l-.9-.9-15.9 16h-51.2L82.4 87.2l-1 .9 19.6 19.6h52.2" class="darkGrey"/>
<path d="M173 89.5c0 1.3-1.1 2.4-2.4 2.4-.6 0-1.3-.3-1.7-.7-.5-.5-.7-1.1-.7-1.7 0-1.3 1.1-2.4 2.4-2.4 1.3 0 2.4 1.1 2.4 2.4z" class="darkGrey"/>
<path d="M173 89.5c0 1.3-1.1 2.4-2.4 2.4-.6 0-1.3-.3-1.7-.7-.5-.5-.7-1.1-.7-1.7 0-1.3 1.1-2.4 2.4-2.4 1.3 0 2.4 1.1 2.4 2.4z" class="blueRing"/>
<path d="M159.8 91.3l-.9-.9-9.4 9.4h-45.6L89.2 85.1l-.9.9 15 15.1H150v-.1" class="darkGrey"/>
<path d="M163.3 89.5c0 1.3-1.1 2.4-2.4 2.4-.6 0-1.3-.3-1.7-.7-.5-.5-.7-1.1-.7-1.7 0-1.3 1.1-2.4 2.4-2.4 1.3 0 2.4 1.1 2.4 2.4z" class="darkGrey"/>
<path d="M163.3 89.5c0 1.3-1.1 2.4-2.4 2.4-.6 0-1.3-.3-1.7-.7-.5-.5-.7-1.1-.7-1.7 0-1.3 1.1-2.4 2.4-2.4 1.3 0 2.4 1.1 2.4 2.4z" class="blueRing"/>
<path d="M147.4 91l-3.5 3.5H108L95.1 81.6l-.9.9 13.2 13.2v.1l37-.1 3.9-3.8" class="darkGrey"/>
<path d="M151.8 90.1c0 1.3-1.1 2.4-2.4 2.4-.6 0-1.3-.3-1.7-.7-.5-.5-.7-1.1-.7-1.7 0-1.3 1.1-2.4 2.4-2.4 1.3-.1 2.4 1 2.4 2.4z" class="darkGrey"/>
<path d="M151.8 90.1c0 1.3-1.1 2.4-2.4 2.4-.6 0-1.3-.3-1.7-.7-.5-.5-.7-1.1-.7-1.7 0-1.3 1.1-2.4 2.4-2.4 1.3-.1 2.4 1 2.4 2.4z" class="greenRing"/>
<path d="M37.4 52.7c0-20.1 16.3-36.4 36.4-36.4 9.6 0 18.9 3.8 25.7 10.6 6.8 6.8 10.6 16.1 10.6 25.7 0 20.1-16.3 36.4-36.4 36.4-20.1 0-36.3-16.2-36.3-36.3z" class="darkGrey"/>
<path id="blueRingLg" d="M37.4 52.7c0-20.1 16.3-36.4 36.4-36.4 9.6 0 18.9 3.8 25.7 10.6 6.8 6.8 10.6 16.1 10.6 25.7 0 20.1-16.3 36.4-36.4 36.4-20.1 0-36.3-16.2-36.3-36.3z"/>
<path id="greenRingLg" d="M46.4 52.7c0-15.1 12.2-27.3 27.3-27.3 7.2 0 14.2 2.9 19.3 8s8 12 8 19.3C101 67.8 88.8 80 73.7 80c-15.1-.1-27.3-12.2-27.3-27.3z"/>
<path id="v" d="M50.7 38.9l20.1 40.3h5.5l20.3-40.3h-4.1L73.6 76.7 54.7 38.9h-4z"/>
<path d="M265 37.9v40.3h34v-3.4h-30V58.6h28.1v-3.4H269V41.3h29.6v-3.4H265zm-31-.8c-2.5 0-4.9.2-7.1.6-2.3.4-4.4.9-6.4 1.7-2 .8-3.7 1.7-5.4 2.9-1.6 1.1-3 2.5-4.1 4.1-1.1 1.5-2 3.3-2.7 5.2-.6 1.9-.9 4.1-.9 6.5 0 3.6.7 6.6 2 9.2 1.4 2.6 3.2 4.8 5.6 6.5s5.2 3 8.4 3.9S230.2 79 234 79c1.9 0 3.6-.1 5.3-.2 1.7-.1 3.3-.3 4.9-.6 1.6-.3 3.1-.6 4.6-1s2.9-.8 4.4-1.4V58h-20.1v3.4h16.5v12.3c-.8.3-1.7.5-2.8.7-1.1.2-2.3.4-3.6.6s-2.7.3-4.2.5c-1.5.1-3 .2-4.5.2-3.9 0-7.3-.4-10.2-1.3-2.9-.9-5.3-2.1-7.2-3.7-1.9-1.6-3.4-3.4-4.3-5.6-.9-2.2-1.4-4.5-1.4-7.1 0-2.7.5-5.2 1.4-7.4 1-2.2 2.4-4.1 4.3-5.6s4.3-2.7 7.3-3.5c2.9-.8 6.3-1.2 10.2-1.2 1.9 0 3.7.1 5.4.4s3.2.6 4.7 1.1 2.8 1 4.1 1.7c1.3.6 2.4 1.3 3.6 2V41c-1.4-.6-2.8-1.1-4.2-1.6s-2.8-.9-4.3-1.2c-1.5-.4-3-.6-4.6-.8-1.7-.2-3.4-.3-5.3-.3zm-57.6 4.2c3.2 0 6 .1 8.2.3 2.2.2 4 .6 5.4 1.2s2.4 1.4 3 2.5.9 2.4.9 4.2c0 1.7-.3 3.1-.9 4.2-.6 1-1.6 1.9-3 2.4s-3.2 1-5.4 1.1c-2.2.2-5 .3-8.2.3H164V41.3h12.4zm-16.2-3.4v40.3h3.7V61h18.2c.6 0 1.1 0 1.7-.1l13 17.4h4.6l-13.8-17.8c3.5-.7 6.1-1.9 7.7-3.7 1.6-1.8 2.4-4.2 2.4-7.2 0-1.9-.3-3.6-1-5.1-.6-1.4-1.7-2.7-3.1-3.6-1.4-.9-3.2-1.7-5.4-2.2s-4.8-.7-7.9-.7l-20.1-.1zm-45.3 0v40.3H149v-3.4h-30V58.6h28.1v-3.4H119V41.3h29.6v-3.4h-33.7z" class="darkGrey"/>
<script xlink:href="/static/svg/logo/verge-logo.js"/>
</svg>
